<svg width="30" height="30" viewBox="0 0 30 30" fill="none" xmlns="http://www.w3.org/2000/svg">
<path d="M23.75 13.7496H8.925L13.4625 8.29961C13.6747 8.04434 13.7768 7.71524 13.7463 7.38471C13.7158 7.05417 13.5553 6.74929 13.3 6.53711C13.0447 6.32494 12.7156 6.22286 12.3851 6.25334C12.0546 6.28381 11.7497 6.44434 11.5375 6.69961L5.2875 14.1996C5.24545 14.2593 5.20785 14.3219 5.175 14.3871C5.175 14.4496 5.175 14.4871 5.0875 14.5496C5.03084 14.6929 5.00118 14.8455 5 14.9996C5.00118 15.1537 5.03084 15.3063 5.0875 15.4496C5.0875 15.5121 5.0875 15.5496 5.175 15.6121C5.20785 15.6773 5.24545 15.74 5.2875 15.7996L11.5375 23.2996C11.655 23.4407 11.8022 23.5542 11.9686 23.632C12.1349 23.7097 12.3164 23.7499 12.5 23.7496C12.7921 23.7502 13.0751 23.6485 13.3 23.4621C13.4266 23.3572 13.5312 23.2283 13.6079 23.0829C13.6846 22.9374 13.7318 22.7783 13.7469 22.6146C13.762 22.4509 13.7447 22.2858 13.6959 22.1288C13.6471 21.9718 13.5678 21.8259 13.4625 21.6996L8.925 16.2496H23.75C24.0815 16.2496 24.3995 16.1179 24.6339 15.8835C24.8683 15.6491 25 15.3311 25 14.9996C25 14.6681 24.8683 14.3501 24.6339 14.1157C24.3995 13.8813 24.0815 13.7496 23.75 13.7496Z" fill="#6A4029"/>
</svg>
