<svg width="25" height="25" viewBox="0 0 25 25" fill="none" xmlns="http://www.w3.org/2000/svg">
<path d="M11.4491 17.2797C11.3179 17.28 11.1878 17.2543 11.0665 17.2042C10.9452 17.1541 10.8349 17.0805 10.7421 16.9877L6.50012 12.7447C6.40455 12.6525 6.32829 12.5422 6.2758 12.4203C6.2233 12.2983 6.19563 12.1671 6.19438 12.0343C6.19313 11.9015 6.21834 11.7698 6.26854 11.6469C6.31873 11.524 6.3929 11.4123 6.48673 11.3183C6.58055 11.2244 6.69215 11.15 6.81501 11.0997C6.93787 11.0493 7.06953 11.0239 7.20231 11.025C7.33509 11.026 7.46633 11.0535 7.58837 11.1058C7.71041 11.1582 7.82081 11.2343 7.91312 11.3297L11.4481 14.8647L17.8131 8.5017C18.0006 8.31406 18.255 8.20859 18.5203 8.2085C18.7855 8.2084 19.04 8.31369 19.2276 8.5012C19.4153 8.68871 19.5207 8.94308 19.5208 9.20835C19.5209 9.47362 19.4156 9.72806 19.2281 9.9157L12.1561 16.9877C12.0633 17.0805 11.9531 17.1541 11.8317 17.2042C11.7104 17.2543 11.5804 17.28 11.4491 17.2797Z" fill="#2FAB73"/>
</svg>
