<svg width="16" height="17" viewBox="0 0 16 17" fill="none" xmlns="http://www.w3.org/2000/svg">
<path d="M14.1892 6.16583L10.222 5.58926L8.44859 1.99395C8.40015 1.89551 8.32046 1.81583 8.22203 1.76739C7.97515 1.64551 7.67515 1.74708 7.55171 1.99395L5.77828 5.58926L1.81109 6.16583C1.70171 6.18145 1.60171 6.23301 1.52515 6.31114C1.43259 6.40627 1.38159 6.53426 1.38334 6.66699C1.3851 6.79971 1.43948 6.9263 1.53453 7.01895L4.40484 9.81739L3.72671 13.769C3.71081 13.8609 3.72098 13.9554 3.75608 14.0418C3.79117 14.1283 3.84978 14.2032 3.92526 14.258C4.00074 14.3128 4.09007 14.3454 4.18312 14.352C4.27617 14.3586 4.36922 14.3391 4.45171 14.2955L8.00015 12.4299L11.5486 14.2955C11.6455 14.3471 11.758 14.3643 11.8658 14.3455C12.1377 14.2986 12.3205 14.0408 12.2736 13.769L11.5955 9.81739L14.4658 7.01895C14.5439 6.94239 14.5955 6.84239 14.6111 6.73301C14.6533 6.45958 14.4627 6.20645 14.1892 6.16583Z" fill="#FEA250"/>
</svg>
